<svg width="30" height="30" viewBox="0 0 30 30" fill="none" xmlns="http://www.w3.org/2000/svg">
    <path d="M30 18.75V28.75C30 29.0815 29.8683 29.3995 29.6339 29.6339C29.3995 29.8683 29.0815 30 28.75 30H1.25C0.918479 30 0.600537 29.8683 0.366117 29.6339C0.131696 29.3995 0 29.0815 0 28.75V18.75C0 18.4185 0.131696 18.1005 0.366117 17.8661C0.600537 17.6317 0.918479 17.5 1.25 17.5C1.58152 17.5 1.89946 17.6317 2.13388 17.8661C2.3683 18.1005 2.5 18.4185 2.5 18.75V27.5H27.5V18.75C27.5 18.4185 27.6317 18.1005 27.8661 17.8661C28.1005 17.6317 28.4185 17.5 28.75 17.5C29.0815 17.5 29.3995 17.6317 29.6339 17.8661C29.8683 18.1005 30 18.4185 30 18.75ZM14.1156 19.6344C14.2317 19.7506 14.3696 19.8428 14.5213 19.9057C14.6731 19.9686 14.8357 20.001 15 20.001C15.1643 20.001 15.3269 19.9686 15.4787 19.9057C15.6304 19.8428 15.7683 19.7506 15.8844 19.6344L22.1344 13.3844C22.2505 13.2682 22.3426 13.1304 22.4055 12.9786C22.4683 12.8269 22.5007 12.6642 22.5007 12.5C22.5007 12.3358 22.4683 12.1731 22.4055 12.0214C22.3426 11.8696 22.2505 11.7318 22.1344 11.6156C22.0182 11.4995 21.8804 11.4074 21.7286 11.3445C21.5769 11.2817 21.4142 11.2493 21.25 11.2493C21.0858 11.2493 20.9231 11.2817 20.7714 11.3445C20.6196 11.4074 20.4818 11.4995 20.3656 11.6156L16.25 15.7328V1.25C16.25 0.918479 16.1183 0.600537 15.8839 0.366116C15.6495 0.131696 15.3315 0 15 0C14.6685 0 14.3505 0.131696 14.1161 0.366116C13.8817 0.600537 13.75 0.918479 13.75 1.25V15.7328L9.63438 11.6156C9.39983 11.3811 9.08171 11.2493 8.75 11.2493C8.41829 11.2493 8.10017 11.3811 7.86562 11.6156C7.63107 11.8502 7.49931 12.1683 7.4993 12.5C7.49931 12.8317 7.63107 13.1498 7.86562 13.3844L14.1156 19.6344Z" fill="white"/>
</svg>
